<?xml version="1.0" encoding="UTF-8"?>
<!-- Created with Inkscape (http://www.inkscape.org/) -->
<svg width="100" height="100" version="1.1" viewBox="0 0 100 100" xmlns="http://www.w3.org/2000/svg" xmlns:cc="http://creativecommons.org/ns#" xmlns:dc="http://purl.org/dc/elements/1.1/" xmlns:rdf="http://www.w3.org/1999/02/22-rdf-syntax-ns#">
 <metadata>
  <rdf:RDF>
   <cc:Work rdf:about="">
    <dc:creator>
     <cc:Agent>
      <dc:title>Xiaoliang Wang</dc:title>
     </cc:Agent>
    </dc:creator>
    <cc:license rdf:resource="http://creativecommons.org/licenses/by-nc/4.0/"/>
   </cc:Work>
   <cc:License rdf:about="http://creativecommons.org/licenses/by-nc/4.0/">
    <cc:permits rdf:resource="http://creativecommons.org/ns#Reproduction"/>
    <cc:permits rdf:resource="http://creativecommons.org/ns#Distribution"/>
    <cc:requires rdf:resource="http://creativecommons.org/ns#Notice"/>
    <cc:requires rdf:resource="http://creativecommons.org/ns#Attribution"/>
    <cc:prohibits rdf:resource="http://creativecommons.org/ns#CommercialUse"/>
    <cc:permits rdf:resource="http://creativecommons.org/ns#DerivativeWorks"/>
   </cc:License>
  </rdf:RDF>
 </metadata>
 <g>
  <path d="m23.121 26.705c-0.40818 0.69876-0.34182 1.9653-0.34182 1.9653l0.11065 54.22s-0.06325 2.4671 1.9653 2.4277c2.4266-0.04705 2.3121-2.5434 2.3121-2.5434l0.22651-51.213s-0.06694-2.0138 0.23591-2.8907c0.45335-1.3126 2.9298-2.5886 2.9298-2.5886l16.493-8.8631s2.0084-1.2005 3.0047-1.265c0.88266-0.05717 2.4929 0.90921 2.4929 0.90921l20.087 10.457s1.3209 0.50041 1.6976 1.1197c0.40043 0.65833 0.23611 2.196 0.23611 2.196l0.11074 52.602s0.13225 1.9166 1.9653 2.0809c2.4854 0.22277 2.4277-2.1965 2.4277-2.1965l0.12361-54.798s-0.01905-0.94036-0.35482-1.5029c-0.29164-0.48854-1.4992-1.1629-1.4992-1.1629l-23.727-12.916s-2.2527-1.1897-3.5599-1.1812c-1.4443 0.0093-3.6631 1.4269-3.6631 1.4269l-21.27 11.936s-1.5505 1.0057-2.0036 1.7815z"/>
  <path d="m36.532 62.081c0.02701-2.4259-0.11482-15.247 0-19.306 0.13246-1.7387 2.2638-2.6864 2.9203-3.0698 4.8721-2.8456 10.542-6.2025 16.155-8.9533 1.8097-0.88697 4.4684-0.96494 5.896-0.23121 1.4127 0.72608 2.8058 2.2608 3.4682 3.5838 1.0058 2.0087 1.0158 3.9255 0.34682 5.896-0.67148 1.9779-1.972 3.9882-3.815 4.9711-9.8154 5.2343-24.034 11.687-29.711 15.029-1.0812 0.63645-3.7192-1.6281-2.7746-2.5434 3.4029-3.2971 17.996-8.8241 26.821-13.295 1.7945-0.90913 3.4401-2.0144 4.7399-3.4682 0.78241-0.87517 1.3488-2.0637 1.3873-3.237 0.04556-1.3887-0.49876-2.6456-1.6185-3.4682-0.87012-0.63923-2.0479-0.6137-3.0058-0.11561-5.3163 2.7643-13.309 6.9631-16.069 8.6705-0.41455 0.25641-0.34682 2.7746-0.34682 2.7746l-0.23122 17.11s-0.51007 2.0542-2.0809 2.0809c-0.95162 0.01621-2.1026-0.48439-2.0809-2.4277z"/>
  <path d="m46.127 22.89c1.0244 7.8361 3.1427 25.086 3.892 31.204 0.17025 1.3903 0.27004 1.9647 0.03861 2.6684-0.25432 0.77332-2.1399 2.5842-2.1399 2.5842s-5.4658 4.6088-7.8023 7.1268c-0.78711 0.84824-0.71755 3.1084-0.74432 4.7428-0.04254 2.597-0.07061 5.2743-0.06493 8.2051 0.0022 1.1567 0.62674 2.3662 1.5029 3.1214 1.0353 0.89237 2.3931 1.8844 3.4682 1.0405 3.4766-2.7289 5.0449-5.6944 7.9769-8.5549 0.58983-0.57546 1.6935-0.23766 2.1237 0.32144 0.61733 0.80233 0.5353 2.5687 0.5353 2.5687s-0.21493 5.701-0.23121 8.3237c-0.0075 1.2039 0.96341 2.7674 2.3121 2.7746 1.4567 0.0077 2.3629-1.6337 2.4277-2.8902 0.18537-3.5942 0.19205-10.026 0-14.798-0.06466-1.6066-1.8986-3.0038-3.4682-3.3526-1.2729-0.28288-2.9021 0.23987-3.6994 1.2717-2.0548 2.6591-4.2422 4.8979-7.052 7.6301-0.33383 0.3246-1.1539 0.0032-1.1561-0.92486-0.0028-1.2129-0.03042-1.7815 0.08082-3.6947 0.16763-2.8832 0.12414-3.9073 1.1909-4.9758 3.0083-3.0133 7.4483-6.9857 7.4483-6.9857s1.4822-1.5037 1.8003-2.3785c0.33311-0.91613 0.4506-1.549 0.23621-3.3668-0.8303-7.0407-3.3117-24.127-4.3981-32.471-0.10682-0.82047-1.3696-1.1826-2.1965-1.1561-0.81249 0.02604-2.1863 1.1593-2.0809 1.9653z"/>
 </g>
</svg>
