<?xml version="1.0" encoding="UTF-8"?>
<!-- Created with Inkscape (http://www.inkscape.org/) -->
<svg width="100" height="100" version="1.1" viewBox="0 0 100 100" xmlns="http://www.w3.org/2000/svg" xmlns:cc="http://creativecommons.org/ns#" xmlns:dc="http://purl.org/dc/elements/1.1/" xmlns:rdf="http://www.w3.org/1999/02/22-rdf-syntax-ns#">
 <metadata>
  <rdf:RDF>
   <cc:Work rdf:about="">
    <dc:creator>
     <cc:Agent>
      <dc:title>Xiaoliang Wang</dc:title>
     </cc:Agent>
    </dc:creator>
    <cc:license rdf:resource="http://creativecommons.org/licenses/by-nc/4.0/"/>
   </cc:Work>
   <cc:License rdf:about="http://creativecommons.org/licenses/by-nc/4.0/">
    <cc:permits rdf:resource="http://creativecommons.org/ns#Reproduction"/>
    <cc:permits rdf:resource="http://creativecommons.org/ns#Distribution"/>
    <cc:requires rdf:resource="http://creativecommons.org/ns#Notice"/>
    <cc:requires rdf:resource="http://creativecommons.org/ns#Attribution"/>
    <cc:prohibits rdf:resource="http://creativecommons.org/ns#CommercialUse"/>
    <cc:permits rdf:resource="http://creativecommons.org/ns#DerivativeWorks"/>
   </cc:License>
  </rdf:RDF>
 </metadata>
 <g>
  <path d="m47.052 11.561c-1.1153 0.07118-1.4628 1.3109-1.5029 2.4277-0.16354 4.5529 0.2095 8.2324-0.46243 12.023-1.2516 7.0613-8.8253 15.756-9.711 20.347-0.51229 2.6554-0.30943 5.4223 0.57803 7.9769 1.866 5.3713 6.6838 9.6753 9.9422 14.335 1.6569 2.3696 2.0187 3.6195 2.1965 5.896 0.32792 4.1983 0.14762 7.0499 0.23121 11.329 0.01928 0.98681 0.97832 2.0809 1.9653 2.0809s1.6641-0.97938 1.6185-1.9653c-0.26972-5.8271 0.49271-11.773-1.8497-17.457-1.1747-2.8503-3.7282-4.9112-5.5491-7.3988-1.5664-2.1399-3.4976-4.0732-4.6243-6.474-0.6433-1.3708-1.3157-3.5742-1.3873-5.0867-0.12371-2.6135 0.49637-4.3503 1.8497-6.5896 3.7087-6.1364 7.2548-9.9955 8.2081-17.225 0.60208-4.5665 0.38234-7.3166 0.34682-12.139-0.0059-0.79441-1.0569-2.1315-1.8497-2.0809z"/>
  <path d="m45.202 34.682c5.0996 5.7232 4.2202 10.976 2.8902 15.26-1.0514 3.3866-2.9963 6.3916-4.8555 9.3642-1.1938 0.15593-2.1998-1.6697-2.3121-2.7746 1.8743-2.6324 4.1504-6.5452 4.7399-9.9422 1.2297-7.0857-2.378-7.5165-2.3121-9.8266 0.02645-0.92768 1.2323-2.7738 1.8497-2.0809z"/>
  <path d="m48.786 19.306c3.6156 2.5464 15.766 9.9813 17.803 12.486 1.785 3.7321 0.45401 8.4646-0.23121 12.37-0.13524 0.89273-0.94688 1.6312-1.8497 1.6185-0.87358-0.01234-1.3774-1.467-1.1561-2.3121 0.78068-2.9815 2.161-9.0259-1e-6 -10.751-4.5417-3.6266-8.9819-6.117-14.451-9.8266-0.98915-0.67093-1.0928-4.272-0.11561-3.5838z"/>
  <path d="m53.988 26.358c-0.70758 5.0812-0.90635 5.9777-2.5434 8.4393-0.44862 0.67462-0.5779 1.7443 0 2.3121 1.05 1.0317 2.0241 0.18317 2.3121-0.11561 1.3935-1.4454 2.4366-5.2029 3.0058-9.1329 0.12412-0.85704-2.6551-2.3606-2.7746-1.5029z"/>
  <path d="m59.653 29.48c-0.8208 5.5019-2.2133 7.681-3.237 9.711-0.39262 0.77857 0.39986 2.0971 1.2717 2.0809 0.7361-0.01363 1.5567-0.36504 1.8497-1.0405 0.84185-1.9408 2.2519-5.3102 2.7746-9.1329 0.14055-1.028-2.5059-2.6447-2.659-1.6185z"/>
 </g>
</svg>
