<?xml version="1.0" encoding="UTF-8"?>
<!-- Created with Inkscape (http://www.inkscape.org/) -->
<svg width="100" height="100" version="1.1" viewBox="0 0 100 100" xmlns="http://www.w3.org/2000/svg" xmlns:cc="http://creativecommons.org/ns#" xmlns:dc="http://purl.org/dc/elements/1.1/" xmlns:rdf="http://www.w3.org/1999/02/22-rdf-syntax-ns#">
 <metadata>
  <rdf:RDF>
   <cc:Work rdf:about="">
    <dc:creator>
     <cc:Agent>
      <dc:title>Xiaoliang Wang</dc:title>
     </cc:Agent>
    </dc:creator>
    <cc:license rdf:resource="http://creativecommons.org/licenses/by-nc/4.0/"/>
   </cc:Work>
   <cc:License rdf:about="http://creativecommons.org/licenses/by-nc/4.0/">
    <cc:permits rdf:resource="http://creativecommons.org/ns#Reproduction"/>
    <cc:permits rdf:resource="http://creativecommons.org/ns#Distribution"/>
    <cc:requires rdf:resource="http://creativecommons.org/ns#Notice"/>
    <cc:requires rdf:resource="http://creativecommons.org/ns#Attribution"/>
    <cc:prohibits rdf:resource="http://creativecommons.org/ns#CommercialUse"/>
    <cc:permits rdf:resource="http://creativecommons.org/ns#DerivativeWorks"/>
   </cc:License>
  </rdf:RDF>
 </metadata>
 <g stroke-width="2.6">
  <path d="m22.197 12.254c-1.0481-0.01948-1.8758 1.1521-1.9653 2.1965-1.2003 14 3.1377 19.734 20.231 22.197 0.22288-1.5818 0.55854-1.5193 0.57804-3.4682-4.3612-0.75926-21.89-1.4766-17.341-19.191 0.17066-0.66454-0.8169-1.7214-1.5029-1.7341z"/>
  <path d="m30.983 18.15c-4.5284 16.302 2.3998 32.88 4.6243 32.948 2.7615 0.08429 8.6725-15.316 8.6705-30.751-1.52e-4 -1.1796-0.79088-2.3067-1.9653-2.1965-0.76157 0.07144-1.1331 1.5476-1.1561 2.3121-0.25981 8.6666-1.5777 20.112-4.9711 25.202-2.9434-6.2392-5.0384-10.064-2.3553-26.367 0.12655-0.76898-0.19305-1.6761-0.76136-1.9635-0.76148-0.38506-1.8775 0.06669-2.0857 0.81608z"/>
  <path d="m74.451 15.029c-0.76491 6.63e-4 -1.0168 1.0852-1.0405 1.8497-0.46155 14.904-9.3086 16.224-17.341 18.96-1.206 0.41076-0.53257 3.3515 0.69364 3.0058 12.225-3.4464 18.326-7.4463 19.191-21.503 0.06879-1.1181-0.3827-2.3131-1.5029-2.3121z"/>
  <path d="m66.243 21.85c0.6008 0.03712 1.4327 0.78944 1.5029 1.3873 1.2381 10.543-2.6773 30.09-5.7803 30.173-2.131 0.05719-7.5614-11.655-8.4393-20.809-0.0862-0.8988 0.6009-2.1218 1.5029-2.0809 0.6533 0.02963 1.2619 1.2079 1.3873 1.8497 1.0113 5.1758 2.839 12.589 5.2023 16.532 2.1757-5.5033 3.626-16.889 3.0058-25.202-0.04772-0.63958 0.97836-1.8893 1.6185-1.8497z"/>
  <path d="m50.751 9.9422c-0.98632-0.036331-2.0809 1.3251-2.0809 2.3121-0.0012 19.694 0.02625 36.775 0 55.145-0.0018 1.2598 1.1742 1.4108 1.8497 1.5029 0.94303 0.1286 1.9772-0.66681 1.9653-1.6185-0.2076-16.616 0.05867-34.97-0.11561-54.798-0.0065-0.73619-0.88277-2.5163-1.6185-2.5434z"/>
  <path d="m29.711 49.249c-0.89453-0.1971-2.2899 1.4319-2.5434 2.3121-0.72995 2.5347-1.2203 4.7245-1.2717 8.4393-0.08448 6.1092 7.6944 10.854 12.717 14.22 0.46611 0.31235 1.8586 0.33234 2.1965-0.11561 0.48732-0.64606 0.89225-1.9609 0.23121-2.4277-6.1896-4.3711-12.086-8.6961-11.792-12.486 0.25561-3.2922 0.3383-3.0437 1.1561-6.7052 0.18498-0.82825 0.13514-3.0544-0.69364-3.237z"/>
  <path d="m43.006 53.295c-0.62993-0.78766-1.9927-0.29481-2.659 0.46243-6.2084 7.0564-10.43 13.955-13.88 22.27-1.1648 2.8073-0.58842 7.4203-0.45487 9.9847 0.06013 1.1545 0.37732 1.9328 1.5029 2.1965 1.0302 0.24144 1.9758-1.1384 1.9653-2.1965-0.02159-2.1741-0.36842-6.7427 0.6322-8.9264 3.5172-7.676 6.2371-12.895 13.009-21.247 0.68346-0.8429 0.56217-1.6959-0.11561-2.5434z"/>
 </g>
</svg>
